<!DOCTYPE svg PUBLIC "-//W3C//DTD SVG 20010904//EN" "http://www.w3.org/TR/2001/REC-SVG-20010904/DTD/svg10.dtd">
<svg version="1.0" xmlns="http://www.w3.org/2000/svg" width="1200px" height="1011px" viewBox="0 0 12000 10110" preserveAspectRatio="xMidYMid meet">
<g id="layer101" fill="#00028c" stroke="none">
<path d="M0 5055 l0 -5055 6000 0 6000 0 0 5055 0 5055 -6000 0 -6000 0 0 -5055z"/>
</g>
<g id="layer102" fill="#f9fd50" stroke="none">
<path d="M6869 6646 c-97 -34 -154 -94 -183 -192 -10 -32 -19 -65 -22 -71 -2 -9 -32 -13 -102 -13 -89 0 -100 -2 -119 -22 -46 -51 -52 -81 -27 -134 27 -57 53 -64 224 -64 205 0 218 7 240 144 18 111 44 146 109 146 40 0 76 -18 90 -44 14 -28 30 -103 31 -144 0 -25 9 -43 34 -68 l34 -34 167 0 167 0 34 34 c29 29 34 41 34 79 0 37 -5 51 -31 76 -30 30 -32 31 -129 31 l-98 0 -7 36 c-10 56 -49 136 -83 171 -58 59 -105 76 -222 79 -67 2 -118 -2 -141 -10z"/>
<path d="M6464 6060 c-57 -23 -84 -117 -48 -168 36 -52 35 -52 573 -52 305 0 510 4 526 10 77 29 101 121 46 182 l-29 33 -524 2 c-288 1 -533 -2 -544 -7z"/>
<path d="M5110 5963 c-28 -10 -59 -45 -65 -74 -15 -67 -6 -78 321 -405 262 -261 320 -314 349 -320 72 -13 135 40 135 113 0 21 -4 44 -9 52 -10 16 -529 538 -596 600 -36 34 -51 41 -82 40 -21 0 -45 -3 -53 -6z"/>
<path d="M8577 5603 c-170 -170 -315 -320 -323 -335 -20 -38 -18 -75 7 -114 23 -38 80 -61 126 -50 34 9 625 594 648 643 25 52 19 91 -19 129 -29 29 -41 34 -82 34 l-48 0 -309 -307z"/>
<path d="M6431 5763 c-22 -9 -61 -54 -66 -77 -7 -33 -63 -327 -70 -366 -45 -259 -99 -367 -356 -706 -111 -146 -142 -188 -165 -229 -6 -11 -30 -52 -53 -92 -22 -40 -41 -75 -41 -79 0 -3 -6 -20 -14 -37 -19 -43 -44 -110 -44 -120 0 -4 -6 -33 -13 -65 -8 -35 -13 -120 -12 -222 1 -186 21 -305 74 -445 29 -77 88 -205 100 -215 3 -3 16 -23 29 -45 29 -50 145 -188 196 -235 196 -180 427 -296 704 -352 85 -18 142 -22 295 -22 229 -1 302 8 480 58 93 27 259 100 318 140 21 14 40 26 43 26 15 0 130 94 207 169 151 147 242 291 318 502 47 132 69 275 69 445 0 255 -50 442 -174 647 -23 37 -46 76 -51 85 -6 9 -37 54 -70 100 -33 46 -79 111 -103 145 -23 34 -50 71 -58 82 -22 28 -118 191 -148 251 -56 112 -87 189 -107 262 -12 42 -28 99 -36 127 -8 27 -20 87 -26 133 -11 76 -15 87 -45 113 l-33 29 -567 -1 c-312 0 -573 -3 -581 -6z m1013 -245 c3 -13 15 -62 26 -109 26 -115 108 -347 130 -369 3 -3 21 -36 40 -75 19 -38 45 -84 57 -103 13 -18 23 -35 23 -37 0 -9 126 -193 239 -350 76 -106 148 -231 181 -316 137 -355 66 -760 -188 -1069 -162 -197 -419 -341 -703 -395 -111 -21 -355 -21 -469 0 -421 78 -751 338 -888 700 -57 152 -66 206 -67 380 0 144 2 167 24 230 55 160 110 255 269 463 285 375 341 488 401 812 12 63 29 148 37 188 l15 72 434 0 433 0 6 -22z"/>
<path d="M4279 4071 c-24 -24 -29 -38 -29 -76 0 -57 12 -80 50 -100 25 -13 96 -15 472 -15 421 0 445 1 475 20 59 36 63 135 6 180 -25 19 -37 20 -485 20 l-460 0 -29 -29z"/>
<path d="M8798 4010 c-61 -48 -59 -142 5 -180 30 -19 54 -20 475 -20 307 0 450 3 465 11 39 20 57 51 57 102 0 40 -5 53 -29 78 l-29 29 -460 0 c-442 0 -460 -1 -484 -20z"/>
<path d="M5333 2457 l-323 -322 0 -49 c0 -41 5 -52 31 -77 34 -31 82 -45 117 -32 31 12 651 633 658 659 10 41 -4 88 -36 117 -24 21 -40 27 -77 27 l-48 0 -322 -323z"/>
<path d="M8248 2724 c-54 -29 -74 -105 -40 -155 24 -37 602 -613 629 -627 41 -22 89 -14 128 19 31 28 35 36 35 82 l0 51 -307 309 c-170 170 -320 315 -335 323 -34 18 -75 17 -110 -2z"/>
<path d="M6945 2218 c-11 -6 -30 -20 -42 -31 l-23 -20 0 -468 0 -467 32 -27 c28 -24 38 -27 87 -23 45 4 58 10 78 34 l23 29 0 455 c0 505 2 488 -66 516 -40 17 -62 17 -89 2z"/>
</g>
<g id="layer103" fill="#edf7fa" stroke="none">
<path d="M1 6958 c1 -1734 4 -3139 6 -3123 2 17 25 116 50 220 53 218 61 343 30 446 -14 46 -15 70 -7 131 22 175 84 279 284 478 79 78 96 100 96 125 1 95 60 258 131 362 93 135 275 288 497 417 70 41 159 94 197 119 150 98 222 118 505 142 279 24 380 55 466 143 50 52 59 72 105 243 22 83 53 180 68 214 34 75 97 146 160 182 25 14 93 56 151 93 224 144 595 331 762 383 62 19 165 48 228 64 108 26 128 28 315 27 162 0 233 -5 375 -27 l175 -26 60 21 c50 18 84 21 210 22 166 1 199 -6 397 -85 189 -75 298 -41 383 120 74 140 193 272 501 556 187 172 250 247 304 361 59 123 119 209 286 411 72 87 155 194 184 238 30 44 71 105 91 136 21 30 85 152 143 270 61 123 128 243 158 284 63 82 143 147 224 180 l59 25 -3797 0 -3798 0 1 -3152z"/>
<path d="M7850 10103 c113 -13 234 -58 274 -102 16 -18 18 -32 13 -113 -7 -118 -31 -205 -122 -450 -90 -237 -114 -326 -122 -439 l-6 -86 44 -6 c24 -3 121 -18 214 -32 110 -17 244 -29 380 -35 238 -10 378 -28 545 -70 68 -18 203 -40 330 -54 225 -26 313 -47 415 -98 293 -147 552 -485 690 -900 44 -133 95 -357 95 -418 l0 -32 78 7 c123 12 281 8 361 -9 157 -33 253 -100 345 -240 29 -45 116 -165 194 -267 212 -280 287 -403 344 -564 25 -69 64 -237 71 -305 2 -19 5 922 5 2093 l2 2127 -2092 -2 c-1151 0 -2077 -3 -2058 -5z"/>
<path d="M11990 5588 c0 -18 -14 -142 -31 -277 -29 -226 -31 -260 -24 -421 12 -298 7 -328 -71 -510 -86 -197 -106 -255 -120 -339 -27 -168 -65 -248 -228 -475 -102 -143 -157 -237 -177 -304 -13 -45 -52 -94 -239 -294 -287 -306 -352 -421 -409 -723 -22 -119 -95 -224 -215 -310 -34 -24 -127 -78 -206 -121 -80 -42 -164 -90 -187 -106 -83 -56 -140 -129 -156 -199 -16 -67 -325 -409 -507 -561 -196 -164 -308 -232 -577 -346 -482 -206 -943 -337 -1563 -444 -230 -39 -242 -40 -575 -48 -361 -9 -445 -18 -594 -65 -44 -14 -106 -29 -138 -34 -33 -5 1278 -9 2985 -10 l3042 -1 0 2810 c0 1546 -2 2810 -5 2810 -3 0 -5 -14 -5 -32z"/>
<path d="M1 1833 l-1 -1833 2848 1 c2487 1 2834 3 2744 15 -57 8 -198 34 -313 59 -332 70 -371 76 -599 85 -236 9 -201 3 -671 124 -142 36 -310 73 -380 82 -68 9 -158 27 -199 40 -41 13 -176 52 -300 88 -313 89 -439 136 -630 234 -193 99 -238 132 -383 282 -118 121 -174 163 -255 186 -63 19 -207 102 -381 221 -276 188 -451 358 -559 546 -67 116 -127 195 -158 209 -14 7 -24 20 -24 32 0 13 -52 80 -131 171 -305 348 -336 403 -479 875 -39 129 -80 258 -90 285 -11 28 -24 68 -29 90 -5 25 -9 -664 -10 -1792z"/>
</g>


</svg>