<!DOCTYPE svg PUBLIC "-//W3C//DTD SVG 20010904//EN" "http://www.w3.org/TR/2001/REC-SVG-20010904/DTD/svg10.dtd">
<svg version="1.0" xmlns="http://www.w3.org/2000/svg" width="697px" height="143px" viewBox="0 0 6970 1430" preserveAspectRatio="xMidYMid meet">
<g id="layer101" fill="#f9fd50" stroke="none">
 <path d="M210 1221 c0 -24 4 -28 25 -28 14 0 25 3 25 8 0 5 -5 9 -11 9 -8 0 -7 5 1 15 7 9 10 19 6 22 -4 4 -11 1 -16 -7 -7 -10 -10 -11 -10 -2 0 6 -4 12 -10 12 -5 0 -10 -13 -10 -29z"/>
 <path d="M270 1219 c0 -16 5 -29 10 -29 6 0 10 5 10 11 0 8 5 8 15 -1 12 -10 15 -9 15 6 0 17 1 17 14 -1 18 -25 49 -13 44 17 -3 26 -36 37 -49 16 -5 -7 -9 -8 -9 -2 0 6 -11 12 -25 12 -21 0 -25 -5 -25 -29z m100 0 c0 -5 -7 -9 -15 -9 -15 0 -20 12 -9 23 8 8 24 -1 24 -14z"/>
 <path d="M396 1228 c-3 -13 -6 -25 -6 -28 0 -3 20 -5 45 -5 40 0 45 2 45 22 0 12 8 24 18 26 13 4 12 5 -5 6 -15 1 -23 -6 -26 -21 l-4 -23 -8 23 c-8 24 -21 29 -28 10 -4 -10 -6 -10 -6 0 -2 20 -18 13 -25 -10z"/>
 <path d="M520 1220 c0 -22 5 -30 18 -30 22 0 25 40 2 41 -10 0 -9 3 5 9 19 8 19 9 -2 9 -19 1 -23 -4 -23 -29z"/>
 <path d="M570 1220 c0 -27 3 -31 23 -28 16 2 22 10 22 28 0 18 -6 26 -22 28 -20 3 -23 -1 -23 -28z"/>
 <path d="M637 1243 c-23 -23 7 -64 34 -47 9 5 5 10 -10 16 -14 5 -19 12 -15 20 6 9 9 9 12 0 5 -17 22 -15 22 3 0 15 -31 21 -43 8z"/>
 <path d="M692 1223 c2 -20 9 -29 25 -31 17 -3 20 1 16 17 -3 12 -10 21 -17 22 -6 0 -2 4 9 9 18 8 17 9 -8 9 -25 1 -28 -2 -25 -26z"/>
 <path d="M770 1218 c0 -15 5 -28 10 -28 6 0 10 6 10 13 0 8 3 8 9 -2 13 -21 36 -7 39 23 2 23 -1 25 -33 24 -31 -1 -35 -4 -35 -30z"/>
 <path d="M877 1243 c-10 -21 -1 -48 17 -48 14 0 20 8 23 28 3 21 0 27 -16 27 -11 0 -22 -3 -24 -7z"/>
 <path d="M937 1244 c-10 -11 -8 -54 2 -54 5 0 12 12 14 28 l4 27 2 -27 c0 -16 6 -28 12 -28 16 0 6 54 -11 58 -9 1 -19 0 -23 -4z"/>
 <path d="M991 1223 c-1 -27 3 -33 19 -33 13 0 20 7 20 20 0 11 -6 20 -14 20 -8 0 -17 6 -19 13 -3 6 -6 -3 -6 -20z"/>
 <path d="M1040 1219 c0 -26 3 -30 23 -27 16 2 23 11 25 33 2 24 1 27 -8 15 -9 -11 -13 -12 -17 -2 -9 23 -23 12 -23 -19z"/>
 <path d="M1100 1220 c0 -23 4 -30 20 -30 22 0 28 35 8 44 -7 3 -4 5 7 3 12 -1 21 -11 23 -25 4 -26 19 -29 25 -4 4 16 5 16 6 0 2 -29 21 -20 21 10 0 26 -2 27 -55 29 -55 3 -55 2 -55 -27z"/>
 <path d="M1222 1223 c2 -20 9 -29 25 -31 17 -3 20 1 16 17 -3 12 -10 21 -17 22 -6 0 -2 4 9 9 18 8 17 9 -8 9 -25 1 -28 -2 -25 -26z"/>
 <path d="M1504 1236 c-20 -9 -35 -25 -43 -46 -14 -42 -15 -40 13 -40 15 0 26 7 29 20 12 46 107 46 107 0 0 -15 -12 -23 -57 -36 -91 -25 -117 -71 -68 -119 49 -50 165 -25 165 35 0 27 -31 26 -48 -1 -18 -28 -87 -24 -87 6 0 15 12 24 54 37 66 21 91 43 91 77 -1 65 -81 100 -156 67z"/>
 <path d="M1707 1243 c-4 -3 -7 -62 -7 -130 l0 -123 101 0 c90 0 100 2 97 18 -3 14 -16 18 -76 20 l-72 3 0 34 0 35 71 0 c62 0 70 2 67 18 -3 14 -16 18 -71 20 l-67 3 0 34 0 35 75 0 c68 0 75 2 75 20 0 19 -7 20 -93 20 -52 0 -97 -3 -100 -7z"/>
 <path d="M1947 1243 c-4 -3 -7 -62 -7 -130 l0 -123 25 0 c21 0 35 14 78 82 l52 82 3 -82 c3 -80 4 -82 27 -82 l25 0 0 130 c0 128 0 130 -23 130 -17 0 -35 -19 -77 -87 l-55 -87 -3 87 c-2 76 -5 87 -21 87 -10 0 -21 -3 -24 -7z"/>
 <path d="M2200 1121 l0 -131 25 0 26 0 -3 128 c-3 123 -4 127 -25 130 -23 3 -23 3 -23 -127z"/>
 <path d="M2363 1235 c-82 -35 -94 -158 -22 -220 36 -30 111 -35 147 -9 76 53 67 190 -14 229 -39 18 -69 19 -111 0z m110 -57 c10 -12 17 -37 17 -61 0 -110 -132 -119 -147 -10 -5 37 -2 45 26 74 25 25 37 30 59 25 15 -4 35 -16 45 -28z"/>
 <path d="M2580 1120 l0 -130 83 0 c97 0 117 13 117 73 0 26 -6 41 -24 54 l-23 18 33 50 c40 59 41 65 10 65 -17 0 -33 -14 -60 -55 -30 -46 -41 -55 -66 -55 -30 0 -30 1 -30 55 0 48 -2 55 -20 55 -19 0 -20 -7 -20 -130z m150 -41 c18 -28 -8 -49 -60 -49 l-50 0 0 36 0 37 51 -5 c28 -3 55 -11 59 -19z"/>
 <path d="M2974 1236 c-20 -9 -35 -25 -43 -46 -14 -42 -15 -40 13 -40 15 0 26 7 29 20 12 46 107 46 107 0 0 -15 -12 -23 -57 -36 -91 -25 -117 -71 -68 -119 49 -50 165 -25 165 35 0 27 -31 26 -48 -1 -18 -28 -87 -24 -87 6 0 15 12 24 54 37 66 21 91 43 91 77 -1 65 -81 100 -156 67z"/>
 <path d="M3177 1243 c-4 -3 -7 -62 -7 -130 l0 -123 101 0 c90 0 100 2 97 18 -3 14 -16 18 -76 20 l-72 3 0 34 0 35 71 0 c62 0 70 2 67 18 -3 14 -16 18 -71 20 l-67 3 0 34 0 35 75 0 c68 0 75 2 75 20 0 19 -7 20 -93 20 -52 0 -97 -3 -100 -7z"/>
 <path d="M3471 1237 c-60 -30 -86 -127 -51 -191 33 -62 131 -76 181 -27 16 16 29 34 29 39 0 13 -44 24 -48 12 -8 -22 -35 -40 -61 -40 -51 0 -82 61 -62 123 21 62 92 71 121 17 13 -24 50 -27 50 -4 0 62 -94 105 -159 71z"/>
 <path d="M3723 1235 c-82 -35 -94 -158 -22 -220 36 -30 111 -35 147 -9 76 53 67 190 -14 229 -39 18 -69 19 -111 0z m110 -57 c10 -12 17 -37 17 -61 0 -110 -132 -119 -147 -10 -5 37 -2 45 26 74 25 25 37 30 59 25 15 -4 35 -16 45 -28z"/>
 <path d="M3947 1243 c-4 -3 -7 -62 -7 -130 l0 -123 25 0 c21 0 35 14 78 82 l52 82 3 -82 c3 -80 4 -82 27 -82 l25 0 0 130 c0 128 0 130 -23 130 -17 0 -35 -19 -77 -87 l-55 -87 -3 87 c-2 76 -5 87 -21 87 -10 0 -21 -3 -24 -7z"/>
 <path d="M4197 1243 c-4 -3 -7 -62 -7 -130 l0 -123 78 0 c85 0 113 14 133 67 24 63 -2 156 -51 180 -26 13 -142 18 -153 6z m138 -58 c19 -18 25 -35 25 -67 0 -64 -21 -88 -76 -88 l-44 0 0 90 0 90 35 0 c25 0 44 -8 60 -25z"/>
 <path d="M4434 1225 c4 -14 25 -73 47 -131 38 -98 43 -105 66 -102 22 3 31 17 69 112 62 156 61 148 28 144 -21 -2 -30 -11 -39 -38 -11 -32 -15 -35 -57 -38 -44 -3 -45 -2 -60 38 -12 30 -22 40 -38 40 -19 0 -21 -4 -16 -25z m136 -107 c-1 -7 -7 -24 -14 -37 l-13 -24 -12 33 c-14 42 -15 40 14 40 14 0 25 -6 25 -12z"/>
 <path d="M4690 1120 l0 -130 83 0 c97 0 117 13 117 73 0 26 -6 41 -24 54 l-23 18 33 50 c40 59 41 65 10 65 -17 0 -33 -14 -60 -55 -30 -46 -41 -55 -66 -55 -30 0 -30 1 -30 55 0 48 -2 55 -20 55 -19 0 -20 -7 -20 -130z m150 -41 c18 -28 -8 -49 -60 -49 l-50 0 0 36 0 37 51 -5 c28 -3 55 -11 59 -19z"/>
 <path d="M5010 1192 c0 -51 -5 -64 -45 -124 -25 -37 -45 -70 -45 -73 0 -3 12 -5 28 -5 22 1 33 10 58 52 l32 52 33 -52 c24 -37 41 -52 57 -52 12 0 22 4 22 8 0 4 -20 37 -45 72 -41 58 -45 69 -45 122 0 55 -1 58 -25 58 -24 0 -25 -3 -25 -58z"/>
 <path d="M5324 1236 c-20 -9 -35 -25 -43 -46 -14 -42 -15 -40 13 -40 15 0 26 7 29 20 12 46 107 46 107 0 0 -15 -12 -23 -57 -36 -91 -25 -117 -71 -68 -119 49 -50 165 -25 165 35 0 27 -31 26 -48 -1 -18 -28 -87 -24 -87 6 0 15 12 24 54 37 66 21 91 43 91 77 -1 65 -81 100 -156 67z"/>
 <path d="M5581 1237 c-60 -30 -86 -127 -51 -191 33 -62 131 -76 181 -27 16 16 29 34 29 39 0 13 -44 24 -48 12 -8 -22 -35 -40 -61 -40 -51 0 -82 61 -62 123 21 62 92 71 121 17 13 -24 50 -27 50 -4 0 62 -94 105 -159 71z"/>
 <path d="M5780 1120 c0 -123 1 -130 20 -130 17 0 20 7 20 50 l0 50 55 0 55 0 0 -50 c0 -47 2 -50 25 -50 l25 0 0 131 c0 130 0 130 -22 127 -20 -3 -23 -10 -26 -60 l-3 -58 -54 0 -55 0 0 60 c0 53 -2 60 -20 60 -19 0 -20 -7 -20 -130z"/>
 <path d="M6093 1235 c-82 -35 -94 -158 -22 -220 36 -30 111 -35 147 -9 76 53 67 190 -14 229 -39 18 -69 19 -111 0z m110 -57 c10 -12 17 -37 17 -61 0 -110 -132 -119 -147 -10 -5 37 -2 45 26 74 25 25 37 30 59 25 15 -4 35 -16 45 -28z"/>
 <path d="M6363 1235 c-82 -35 -94 -158 -22 -220 36 -30 111 -35 147 -9 76 53 67 190 -14 229 -39 18 -69 19 -111 0z m110 -57 c10 -12 17 -37 17 -61 0 -110 -132 -119 -147 -10 -5 37 -2 45 26 74 25 25 37 30 59 25 15 -4 35 -16 45 -28z"/>
 <path d="M6587 1243 c-4 -3 -7 -62 -7 -130 l0 -123 25 0 25 0 0 110 0 110 60 0 c53 0 60 2 60 20 0 18 -7 20 -78 20 -43 0 -82 -3 -85 -7z"/>
 <path d="M210 1085 l0 -85 81 0 c44 0 79 -3 77 -7 -83 -163 -93 -303 -30 -436 132 -279 494 -344 710 -128 140 140 172 357 77 529 l-24 42 90 0 89 0 0 85 0 85 -535 0 -535 0 0 -85z m980 47 c0 -16 -7 -18 -61 -15 -58 3 -60 3 -57 -18 4 -31 26 -35 37 -7 6 12 10 17 10 10 1 -7 10 -22 20 -34 26 -27 55 -18 46 14 -6 21 -5 22 8 6 19 -24 44 -23 52 2 8 24 -1 40 -21 40 -8 0 -14 5 -14 10 0 6 11 10 25 10 24 0 25 -3 25 -60 l0 -60 -205 0 c-227 0 -238 -4 -158 -54 82 -53 129 -154 120 -259 -20 -228 -290 -336 -462 -185 -66 58 -95 123 -95 213 0 47 7 84 19 111 24 54 83 118 121 134 65 27 27 35 -173 38 l-197 2 0 54 c0 29 3 56 7 59 3 4 219 7 480 7 450 0 473 -1 473 -18z m-671 -173 c-62 -62 -84 -118 -84 -214 0 -68 4 -89 28 -137 48 -98 131 -155 255 -174 41 -6 42 -7 42 -45 0 -23 5 -39 11 -39 8 0 10 14 6 45 -6 42 -5 45 16 45 36 0 121 45 162 85 58 59 89 136 89 220 0 85 -24 144 -84 209 l-43 46 76 0 c71 0 77 -2 95 -27 54 -76 79 -194 62 -292 -32 -184 -165 -319 -347 -351 -161 -28 -343 58 -428 204 -67 115 -71 269 -10 393 l36 73 80 0 79 0 -41 -41z"/>
 <path d="M252 1098 c2 -15 11 -24 26 -26 18 -3 21 1 19 19 -2 14 -12 24 -26 26 -18 2 -22 -1 -19 -19z"/>
 <path d="M310 1100 c0 -11 8 -24 18 -27 9 -4 20 -11 24 -17 5 -7 8 -7 8 2 0 6 7 12 16 12 11 0 14 5 10 16 -3 9 -6 19 -6 23 0 4 -16 8 -35 9 -29 2 -35 -1 -35 -18z"/>
 <path d="M432 1097 c2 -14 11 -23 26 -25 12 -2 22 0 21 5 -3 20 2 27 11 13 8 -13 10 -13 10 2 0 9 10 18 23 21 12 2 -4 4 -36 5 -54 1 -58 -1 -55 -21z"/>
 <path d="M550 1100 c0 -11 8 -24 18 -27 9 -4 20 -11 24 -17 5 -7 8 -7 8 2 0 6 7 12 16 12 11 0 14 5 10 16 -3 9 -6 19 -6 23 0 4 -16 8 -35 9 -29 2 -35 -1 -35 -18z"/>
 <path d="M671 1096 c1 -16 2 -17 6 -3 6 25 23 21 24 -5 0 -21 1 -21 8 -4 7 18 8 18 14 3 4 -12 18 -17 45 -17 21 0 43 -5 50 -12 8 -8 15 -8 27 2 17 14 20 46 5 55 -6 4 -10 -5 -10 -20 0 -15 -4 -24 -10 -20 -5 3 -10 15 -10 26 0 17 -7 19 -75 18 -70 -1 -75 -3 -74 -23z"/>
 <path d="M884 1106 c-11 -28 1 -51 26 -51 17 0 26 7 30 25 5 21 7 22 13 8 10 -27 39 -23 35 5 -3 19 -10 22 -51 25 -34 1 -49 -2 -53 -12z m46 -27 c0 -15 -22 -21 -31 -8 -14 22 -11 28 11 22 11 -3 20 -9 20 -14z"/>
 <path d="M1000 1100 c0 -25 27 -27 33 -2 4 16 5 16 6 0 1 -25 21 -23 21 2 0 16 -7 20 -30 20 -23 0 -30 -4 -30 -20z"/>
 <path d="M711 963 c-9 -11 -16 -12 -24 -4 -6 6 -24 11 -39 11 -25 0 -28 -4 -28 -31 0 -40 16 -70 35 -63 24 10 18 -20 -10 -46 -14 -13 -25 -18 -25 -11 0 7 -4 9 -10 6 -5 -3 -10 -2 -10 4 0 5 8 14 17 20 14 7 15 12 5 23 -6 8 -9 18 -5 21 3 4 2 7 -4 7 -26 0 -34 -28 -21 -72 7 -24 11 -53 10 -65 -2 -13 4 -36 13 -52 21 -41 19 -54 -5 -46 -14 5 -22 1 -26 -12 -3 -10 -12 -31 -20 -46 -22 -44 -17 -55 26 -68 48 -15 123 3 145 34 13 18 13 24 0 43 -9 14 -12 35 -8 58 3 21 2 36 -4 36 -6 0 -8 11 -5 25 2 14 11 25 18 25 16 0 19 -16 4 -25 -5 -3 -10 -11 -10 -17 0 -6 9 -3 19 6 28 26 34 4 15 -54 l-17 -51 44 -42 c51 -49 96 -60 117 -27 7 11 9 20 5 20 -5 0 -8 21 -9 47 -1 35 -6 51 -24 65 -16 13 -19 22 -13 31 15 18 24 115 11 119 -5 2 -11 35 -12 73 l-1 70 -70 1 c-50 1 -74 -3 -84 -13z m49 -74 c0 -28 -5 -49 -11 -49 -6 0 -8 8 -4 19 4 14 -1 25 -19 36 -23 15 -24 17 -8 34 27 28 42 14 42 -40z m57 14 c-3 -10 -5 -2 -5 17 0 19 2 27 5 18 2 -10 2 -26 0 -35z m-18 -40 c-16 -19 -29 -16 -29 7 0 11 5 20 11 20 5 0 7 6 4 13 -4 6 1 3 9 -7 12 -14 13 -23 5 -33z m61 31 c0 -8 -5 -12 -10 -9 -7 4 -9 -3 -4 -22 6 -25 5 -27 -9 -13 -10 9 -14 24 -11 38 7 25 34 30 34 6z m-133 -15 c17 -17 5 -43 -13 -28 -15 12 -19 39 -6 39 4 0 13 -5 19 -11z m18 -59 c3 -5 -1 -10 -9 -10 -21 0 -31 -21 -15 -31 11 -7 11 -9 1 -9 -19 0 -26 28 -12 45 14 17 26 19 35 5z m42 -7 c-12 -3 -16 -10 -12 -24 4 -11 2 -19 -4 -19 -6 0 -11 11 -11 25 0 20 5 25 23 24 17 -1 18 -2 4 -6z m-130 -49 c-23 -13 -26 -18 -16 -30 6 -8 9 -18 5 -22 -8 -7 -36 25 -36 40 0 10 38 27 60 27 8 0 2 -7 -13 -15z m169 -43 c-3 -4 3 -16 14 -26 23 -21 26 -40 6 -32 -19 7 -28 -3 -16 -18 7 -8 1 -12 -21 -12 -16 0 -25 4 -18 8 6 4 8 12 5 18 -4 6 -12 8 -18 5 -10 -7 7 31 25 54 11 13 31 17 23 3z m-118 -88 c3 -29 1 -32 -24 -29 -36 4 -53 29 -34 51 22 27 55 15 58 -22z m-68 -48 c6 -8 10 -19 8 -24 -1 -5 -11 2 -21 15 -19 26 -8 34 13 9z"/>
 <path d="M680 648 c0 -7 4 -19 9 -27 7 -10 9 -7 8 12 -2 26 -17 39 -17 15z"/>
 <path d="M376 914 c-4 -9 -3 -20 0 -23 4 -3 9 0 11 7 3 6 9 12 14 12 4 0 5 -8 2 -17 -6 -15 -4 -16 9 -5 18 15 31 3 19 -17 -6 -9 -18 -11 -38 -7 -23 5 -32 3 -37 -10 -8 -22 2 -33 14 -14 8 12 10 11 10 -5 1 -19 2 -19 14 -3 17 22 29 12 15 -14 -5 -10 -7 -23 -4 -28 3 -6 1 -10 -5 -10 -6 0 -13 7 -16 15 -7 17 -30 20 -40 4 -3 -6 -1 -16 5 -22 8 -8 11 -6 12 9 0 16 1 16 10 -4 11 -28 44 -26 44 3 0 11 3 22 7 25 4 3 9 15 11 25 2 11 8 30 15 42 11 20 9 24 -17 38 -38 19 -47 19 -55 -1z"/>
 <path d="M1043 913 c-13 -2 -23 -9 -23 -14 0 -6 10 -7 23 -4 18 6 20 5 10 -6 -18 -18 -16 -29 4 -29 15 0 15 -1 -1 -13 -17 -13 -17 -14 -1 -30 10 -11 14 -24 10 -38 -6 -18 -4 -19 12 -11 10 6 27 17 38 25 19 15 19 16 -10 23 -46 11 -49 15 -20 34 27 18 27 18 5 25 -16 5 -19 10 -11 18 24 24 14 30 -36 20z"/>
 <path d="M1093 758 c-18 -6 -33 -15 -33 -19 0 -8 52 -39 65 -39 14 0 3 18 -17 27 l-23 10 23 7 c12 4 22 12 22 17 0 5 -1 9 -2 8 -2 -1 -18 -6 -35 -11z"/>
 <path d="M365 733 l-30 -16 35 -15 c47 -19 47 -19 16 -43 -31 -25 -22 -39 27 -39 26 0 27 2 13 15 -8 9 -12 23 -9 31 3 8 0 27 -8 40 -11 22 -11 27 1 34 27 17 -12 11 -45 -7z"/>
 <path d="M1057 689 c9 -9 8 -16 -3 -27 -8 -8 -13 -21 -9 -29 3 -9 -7 -28 -25 -46 -16 -16 -26 -35 -23 -41 4 -6 8 -6 11 2 6 19 22 14 22 -6 0 -10 3 -21 6 -25 11 -10 34 5 33 22 0 10 -2 11 -6 4 -2 -7 -9 -13 -15 -13 -6 0 -8 7 -5 15 4 8 2 17 -3 20 -21 13 -8 25 25 25 41 0 43 5 13 38 l-23 24 33 -7 c31 -6 33 -5 30 17 -2 13 -10 23 -20 23 -9 0 -20 4 -24 8 -4 4 -12 7 -18 7 -6 0 -6 -4 1 -11z"/>
 <path d="M405 599 c-30 -5 -33 -6 -12 -8 27 -1 27 -1 11 -26 -9 -14 -12 -25 -7 -25 9 0 58 60 51 64 -1 1 -21 -1 -43 -5z"/>
 <path d="M437 545 c-20 -43 -21 -45 -4 -41 41 13 68 16 62 6 -3 -5 1 -10 9 -10 9 0 16 -5 16 -11 0 -5 -8 -9 -17 -7 -29 4 -46 -11 -32 -28 6 -8 16 -14 21 -14 6 0 5 7 -2 15 -11 13 -8 15 14 15 37 0 36 36 -1 53 -34 14 -43 26 -36 44 11 29 -14 11 -30 -22z"/>
 <path d="M964 504 c4 -12 2 -15 -9 -10 -11 4 -15 -1 -15 -16 0 -16 -3 -19 -11 -11 -15 15 -39 5 -39 -14 0 -10 -7 -14 -20 -10 -26 7 -25 -5 3 -31 32 -30 37 -28 37 15 l0 36 23 -21 c30 -28 35 -28 29 4 -4 24 -3 25 17 15 24 -14 24 -14 10 28 -6 17 -15 31 -21 31 -6 0 -7 -7 -4 -16z"/>
 <path d="M548 462 c-8 -9 -24 -23 -34 -30 -18 -12 -18 -13 4 -8 14 3 22 -1 22 -10 0 -31 18 -12 22 24 6 45 6 46 -14 24z"/>
 <path d="M580 421 c0 -46 8 -51 35 -21 26 28 35 25 35 -12 1 -30 2 -31 14 -15 17 22 22 22 30 -5 7 -21 8 -20 20 12 14 37 11 55 -4 30 -8 -12 -10 -12 -16 3 -6 16 -7 16 -19 1 -11 -15 -12 -15 -18 5 -4 17 -11 21 -25 17 -12 -4 -26 0 -36 9 -15 15 -16 13 -16 -24z"/>
 <path d="M788 425 c-5 -6 8 -62 18 -73 1 -2 12 2 24 8 31 17 24 64 -10 68 -14 2 -29 0 -32 -3z m46 -22 c4 -9 2 -21 -4 -27 -12 -12 -15 -8 -24 22 -9 27 18 32 28 5z"/>
 <path d="M2955 925 c-53 -18 -115 -88 -140 -156 -27 -75 -27 -214 0 -289 26 -70 95 -144 150 -159 153 -42 281 45 315 213 6 31 8 10 9 -82 l1 -123 57 3 58 3 92 180 92 180 1 -183 0 -183 53 3 52 3 5 254 5 254 64 -209 c35 -115 71 -231 78 -257 l15 -48 56 3 57 3 75 255 75 255 3 -258 2 -258 53 3 52 3 3 242 2 242 113 3 112 3 0 45 0 45 -217 3 -217 2 -15 -52 c-8 -29 -18 -65 -22 -80 -6 -27 -8 -28 -79 -28 l-73 0 -24 78 -24 77 -104 3 -105 2 -97 -187 -98 -188 0 188 0 187 -50 0 -50 0 -1 -122 c-1 -92 -3 -113 -9 -83 -36 173 -175 263 -325 210z m150 -117 c44 -35 65 -92 65 -183 0 -129 -49 -205 -130 -205 -81 0 -130 76 -130 205 0 129 49 205 130 205 23 0 48 -8 65 -22z m839 -180 c-3 -18 -12 -51 -19 -73 l-12 -40 -16 57 c-10 32 -20 64 -23 73 -5 12 2 15 36 15 l42 0 -8 -32z"/>
 <path d="M5256 925 c-73 -26 -136 -110 -156 -209 -6 -31 -8 -10 -9 82 l-1 123 -52 -3 -53 -3 -5 -139 -5 -139 -29 109 c-16 60 -33 124 -38 142 -9 33 -10 33 -61 30 l-52 -3 -42 -150 -42 -150 0 153 -1 153 -52 -3 -53 -3 0 -290 0 -290 66 -3 66 -3 53 195 c30 107 56 193 59 191 2 -3 28 -89 56 -192 l52 -188 67 -3 66 -3 1 118 c0 112 1 116 13 73 37 -137 119 -210 236 -210 119 0 213 88 240 224 6 31 8 10 9 -81 l1 -123 129 0 c71 0 142 5 158 11 68 25 130 126 135 217 1 20 5 -21 8 -93 l5 -130 188 -3 187 -2 0 50 0 50 -135 0 -135 0 0 70 0 70 125 0 125 0 0 50 0 50 -125 0 -125 0 0 75 0 74 138 3 137 3 0 45 0 45 -190 0 -190 0 -5 -135 c-4 -110 -6 -125 -12 -83 -8 62 -40 138 -71 172 -39 42 -77 51 -217 51 l-130 0 -1 -122 c-1 -92 -3 -113 -9 -83 -35 172 -175 263 -324 210z m149 -117 c44 -35 65 -92 65 -183 0 -129 -49 -205 -130 -205 -81 0 -130 76 -130 205 0 129 49 205 130 205 23 0 48 -8 65 -22z m425 6 c48 -29 64 -69 68 -176 4 -84 1 -103 -17 -142 -26 -52 -68 -76 -135 -76 l-46 0 0 205 0 205 51 0 c29 0 63 -7 79 -16z"/>
 <path d="M1460 625 l0 -296 57 3 58 3 92 180 92 180 1 -183 0 -183 53 3 52 3 5 254 5 254 64 -209 c35 -115 71 -231 78 -257 l15 -48 56 3 57 3 82 275 c45 151 82 283 82 293 1 14 -8 17 -54 17 l-54 0 -15 -52 c-8 -29 -18 -65 -22 -80 -6 -27 -8 -28 -79 -28 l-73 0 -24 78 -24 77 -104 3 -105 2 -97 -187 -98 -188 0 188 0 187 -50 0 -50 0 0 -295z m654 3 c-3 -18 -12 -51 -19 -73 l-12 -40 -16 57 c-10 32 -20 64 -23 73 -5 12 2 15 36 15 l42 0 -8 -32z"/>
 <path d="M2417 913 c-4 -3 -7 -114 -7 -245 l0 -238 -75 0 -75 0 0 -50 0 -50 260 0 260 1 0 295 0 295 -52 -3 -53 -3 -3 -242 -2 -243 -75 0 -75 0 0 245 0 245 -48 0 c-27 0 -52 -3 -55 -7z"/>
 <path d="M6420 625 l0 -296 53 3 52 3 3 242 2 242 113 3 112 3 0 45 0 45 -167 3 -168 2 0 -295z"/>
 </g>

</svg>